<?xml version="1.0" encoding="UTF-8"?>
<svg width="512" height="512" viewBox="0 0 512 512" fill="none" xmlns="http://www.w3.org/2000/svg">
  <rect width="512" height="512" rx="100" fill="#2563EB"/>
  <path d="M156 356V156H256C289.137 156 315.137 164.53 334 181.59C352.863 198.53 362.295 221.607 362.295 250.82C362.295 280.033 352.863 303.11 334 320.05C315.137 336.99 289.137 345.46 256 345.46H188.238L156 356ZM188.238 321.23H256C280.396 321.23 299.198 315.023 312.405 302.61C325.612 290.197 332.215 272.647 332.215 250.82C332.215 228.993 325.612 211.443 312.405 198.91C299.198 186.377 280.396 180.11 256 180.11H188.238V321.23Z" fill="white"/>
</svg>